<svg width="555" height="555" viewBox="0 0 555 555" fill="none" xmlns="http://www.w3.org/2000/svg">
<path d="M448 0H106.667C47.7867 0 0 47.7867 0 106.667V448C0 506.88 47.7867 554.667 106.667 554.667H448C506.88 554.667 554.667 506.88 554.667 448V106.667C554.667 47.7867 506.88 0 448 0ZM170.667 213.333H332.587L326.186 207.146C317.868 198.828 317.868 185.173 326.186 176.854C334.503 168.535 348.159 168.536 356.478 176.854L399.144 219.521C405.118 225.708 407.04 234.881 403.623 242.775C400.426 250.879 392.53 255.999 383.998 255.999H170.665C158.93 255.999 149.331 246.4 149.331 234.666C149.331 222.931 158.93 213.333 170.665 213.333L170.667 213.333ZM384 341.333H222.08L228.481 347.521C236.799 355.839 236.799 369.494 228.481 377.813C224.215 381.865 218.882 384 213.336 384C207.789 384 202.455 381.865 198.19 377.813L155.524 335.146C149.55 328.959 147.628 319.786 151.045 311.891C154.242 303.787 162.138 298.667 170.67 298.667H384.003C395.738 298.667 405.337 308.266 405.337 320.001C405.337 331.735 395.738 341.334 384.003 341.334L384 341.333Z" fill="black"/>
</svg>
